<svg width="128" height="128" xmlns="http://www.w3.org/2000/svg">
  <defs>
    <linearGradient id="grad1" x1="0%" y1="0%" x2="100%" y2="100%">
      <stop offset="0%" style="stop-color:#2563eb;stop-opacity:1" />
      <stop offset="100%" style="stop-color:#1d4ed8;stop-opacity:1" />
    </linearGradient>
  </defs>
  <rect width="128" height="128" rx="24" fill="url(#grad1)"/>
  <path d="M64 30a12 12 0 0 0-12 12v24a12 12 0 0 0 24 0V42a12 12 0 0 0-12-12z" fill="white"/>
  <path d="M84 56v4a20 20 0 0 1-40 0v-4" stroke="white" stroke-width="6" fill="none"/>
  <line x1="64" y1="80" x2="64" y2="94" stroke="white" stroke-width="6"/>
  <line x1="52" y1="94" x2="76" y2="94" stroke="white" stroke-width="6"/>
  <path d="M90 48 L100 48 L100 70 L90 70 Z" fill="white" opacity="0.8"/>
  <path d="M28 48 L38 48 L38 70 L28 70 Z" fill="white" opacity="0.8"/>
</svg>
